<?xml version="1.0" encoding="UTF-8"?>
<svg width="529px" height="529px" viewBox="0 0 529 529" version="1.1" xmlns="http://www.w3.org/2000/svg" xmlns:xlink="http://www.w3.org/1999/xlink">
    <!-- Generator: Sketch 48.2 (47327) - http://www.bohemiancoding.com/sketch -->
    <title>Group 9</title>
    <desc>Created with Sketch.</desc>
    <defs>
        <rect id="path-1" x="0" y="114.545455" width="86.0557769" height="22.9090909" rx="11.4545455"></rect>
        <rect id="path-2" x="565.099602" y="114.545455" width="154.900398" height="22.9090909" rx="11.4545455"></rect>
        <rect id="path-3" x="599.521912" y="166.090909" width="86.0557769" height="22.9090909" rx="11.4545455"></rect>
        <rect id="path-4" x="599.521912" y="63" width="86.0557769" height="22.9090909" rx="11.4545455"></rect>
    </defs>
    <g id="Page-1" stroke="none" stroke-width="1" fill="none" fill-rule="evenodd">
        <g id="Group-9" transform="translate(270.653896, 270.653896) scale(-1, 1) rotate(-45.000000) translate(-270.653896, -270.653896) translate(-89.346104, 144.653896)">
            <g id="Rectangle-8">
                <use fill="#FFBB05" fill-rule="evenodd" xlink:href="#path-1"></use>
                <rect stroke="#FFBB05" stroke-width="3.60000014" x="1.80000007" y="116.345455" width="82.4557767" height="19.3090908" rx="9.65454538"></rect>
            </g>
            <g id="Rectangle-8">
                <use fill="#FFBB05" fill-rule="evenodd" xlink:href="#path-2"></use>
                <rect stroke="#FFBB05" stroke-width="3.60000014" x="566.899602" y="116.345455" width="151.300398" height="19.3090908" rx="9.65454538"></rect>
            </g>
            <g id="Rectangle-8">
                <use fill="#FFBB05" fill-rule="evenodd" xlink:href="#path-3"></use>
                <rect stroke="#FFBB05" stroke-width="3.60000014" x="601.321912" y="167.890909" width="82.4557767" height="19.3090908" rx="9.65454538"></rect>
            </g>
            <g id="Rectangle-8">
                <use fill="#FFBB05" fill-rule="evenodd" xlink:href="#path-4"></use>
                <rect stroke="#FFBB05" stroke-width="3.60000014" x="601.321912" y="64.8000001" width="82.4557767" height="19.3090908" rx="9.65454538"></rect>
            </g>
            <g id="Group-6" transform="translate(152.031873, 0.000000)" stroke="#FFBB05" stroke-width="23.0400013">
                <path d="M74.0158118,11.5200006 C54.051808,11.5200006 36.6664757,25.1477084 31.8986825,44.5340332 L21.4625561,86.9683682 C21.0357107,88.7039646 20.8199466,90.4847434 20.8199466,92.2720576 C20.8199466,104.537165 30.7627809,114.479999 43.0278884,114.479999 C62.9918922,114.479999 80.3772245,100.852292 85.1450177,81.4659668 L95.5811441,39.0316318 C96.0079895,37.2960354 96.2237536,35.5152566 96.2237536,33.7279424 C96.2237536,21.4628348 86.2809193,11.5200006 74.0158118,11.5200006 Z" id="Rectangle-9"></path>
                <path d="M74.0158118,137.520001 C54.051808,137.520001 36.6664757,151.147708 31.8986825,170.534033 L21.4625561,212.968368 C21.0357107,214.703965 20.8199466,216.484743 20.8199466,218.272058 C20.8199466,230.537165 30.7627809,240.479999 43.0278884,240.479999 C62.9918922,240.479999 80.3772245,226.852292 85.1450177,207.465967 L95.5811441,165.031632 C96.0079895,163.296035 96.2237536,161.515257 96.2237536,159.727942 C96.2237536,147.462835 86.2809193,137.520001 74.0158118,137.520001 Z" id="Rectangle-9" transform="translate(58.521850, 189.000000) scale(-1, 1) translate(-58.521850, -189.000000) "></path>
            </g>
            <g id="Group-7" transform="translate(286.852590, 0.000000)" stroke="#FFBB05" stroke-width="23.0400013">
                <path d="M74.0158118,11.5200006 C54.051808,11.5200006 36.6664757,25.1477084 31.8986825,44.5340332 L21.4625561,86.9683682 C21.0357107,88.7039646 20.8199466,90.4847434 20.8199466,92.2720576 C20.8199466,104.537165 30.7627809,114.479999 43.0278884,114.479999 C62.9918922,114.479999 80.3772245,100.852292 85.1450177,81.4659668 L95.5811441,39.0316318 C96.0079895,37.2960354 96.2237536,35.5152566 96.2237536,33.7279424 C96.2237536,21.4628348 86.2809193,11.5200006 74.0158118,11.5200006 Z" id="Rectangle-9"></path>
                <path d="M74.0158118,137.520001 C54.051808,137.520001 36.6664757,151.147708 31.8986825,170.534033 L21.4625561,212.968368 C21.0357107,214.703965 20.8199466,216.484743 20.8199466,218.272058 C20.8199466,230.537165 30.7627809,240.479999 43.0278884,240.479999 C62.9918922,240.479999 80.3772245,226.852292 85.1450177,207.465967 L95.5811441,165.031632 C96.0079895,163.296035 96.2237536,161.515257 96.2237536,159.727942 C96.2237536,147.462835 86.2809193,137.520001 74.0158118,137.520001 Z" id="Rectangle-9" transform="translate(58.521850, 189.000000) scale(-1, 1) translate(-58.521850, -189.000000) "></path>
            </g>
            <g id="Group-8" transform="translate(418.804781, 0.000000)" stroke="#FFBB05" stroke-width="23.0400013">
                <path d="M74.0158118,11.5200006 C54.051808,11.5200006 36.6664757,25.1477084 31.8986825,44.5340332 L21.4625561,86.9683682 C21.0357107,88.7039646 20.8199466,90.4847434 20.8199466,92.2720576 C20.8199466,104.537165 30.7627809,114.479999 43.0278884,114.479999 C62.9918922,114.479999 80.3772245,100.852292 85.1450177,81.4659668 L95.5811441,39.0316318 C96.0079895,37.2960354 96.2237536,35.5152566 96.2237536,33.7279424 C96.2237536,21.4628348 86.2809193,11.5200006 74.0158118,11.5200006 Z" id="Rectangle-9"></path>
                <path d="M74.0158118,137.520001 C54.051808,137.520001 36.6664757,151.147708 31.8986825,170.534033 L21.4625561,212.968368 C21.0357107,214.703965 20.8199466,216.484743 20.8199466,218.272058 C20.8199466,230.537165 30.7627809,240.479999 43.0278884,240.479999 C62.9918922,240.479999 80.3772245,226.852292 85.1450177,207.465967 L95.5811441,165.031632 C96.0079895,163.296035 96.2237536,161.515257 96.2237536,159.727942 C96.2237536,147.462835 86.2809193,137.520001 74.0158118,137.520001 Z" id="Rectangle-9" transform="translate(58.521850, 189.000000) scale(-1, 1) translate(-58.521850, -189.000000) "></path>
            </g>
        </g>
    </g>
</svg>