<svg id="Layer_1" xmlns="http://www.w3.org/2000/svg" viewBox="0 0 64 64">
  <style>
    .st12,.st9{fill:none;stroke-width:3;stroke-linecap:round;stroke-miterlimit:10}.st9{stroke-linejoin:round;stroke:#ffbb05}.st12{stroke:#000}
  </style>
  <g id="Bread_1_">
    <path d="M32.5 38.1h-1c-22 0-30 9-30 15s4.3 8 7 8h47.1c2.7 0 7-2 7-8s-8.1-15-30.1-15z" fill="none" stroke="#000" stroke-width="3" stroke-miterlimit="10"/>
    <path class="st12" d="M17.9 39.5s5.9 4.1 1.6 10.1M29.8 38.1s7 5.1 2.7 11.1M43.9 39.1s5.9 4.1 1.6 10.1"/>
    <path class="st9" d="M18.9 32s-4.7-6.8 0-11.4 0-13 0-13M46 32s-4.7-6.8 0-11.4 0-13 0-13M31.8 27.6s-4.7-6.8 0-11.4 0-13 0-13"/>
  </g>
</svg>
